<svg id="Layer_1" data-name="Layer 1" xmlns="http://www.w3.org/2000/svg" xmlns:xlink="http://www.w3.org/1999/xlink" viewBox="0 0 418.63 24"><defs><style>.cls-1,.cls-4{fill:none;}.cls-2{fill:#04605a;}.cls-3{fill:#010101;}.cls-4{stroke:#eb621d;stroke-width:2px;}.cls-5{fill:#eb621d;}.cls-6{clip-path:url(#clip-path);}.cls-7{clip-path:url(#clip-path-2);}.cls-8{fill:#efebe5;}.cls-9{clip-path:url(#clip-path-3);}.cls-10{clip-path:url(#clip-path-4);}.cls-11{fill:#efece5;}.cls-12{clip-path:url(#clip-path-5);}</style><clipPath id="clip-path" transform="translate(0 -2)"><rect class="cls-1" x="56.34" y="2" width="24" height="24"/></clipPath><clipPath id="clip-path-2" transform="translate(0 -2)"><rect class="cls-1" x="228.44" y="5.09" width="17.81" height="17.81"/></clipPath><clipPath id="clip-path-3" transform="translate(0 -2)"><rect class="cls-1" x="284.78" y="5.09" width="17.81" height="17.81"/></clipPath><clipPath id="clip-path-4" transform="translate(0 -2)"><rect class="cls-1" x="338.02" y="2" width="24" height="24"/></clipPath><clipPath id="clip-path-5" transform="translate(0 -2)"><rect class="cls-1" x="392.36" width="28" height="28"/></clipPath></defs><path class="cls-2" d="M178.68,23.92v-7h4.66v7h5.84V14.58h3.5L181,4.08l-11.67,10.5h3.5v9.34Z" transform="translate(0 -2)"/><path class="cls-3" d="M117.67,11.2h3V21h-3Zm5.6-4.2h2.8V21h-2.8Zm5.6,8h2.8v6h-2.8Z" transform="translate(0 -2)"/><line class="cls-4" x1="3" y1="11.5" x2="20" y2="11.5"/><path class="cls-5" d="M0,9.5v-6H6V5H1.5V9.5Zm1.5,9V23H6v1.5H0v-6Zm21,4.5V18.5H24v6H18V23ZM18,3.5h6v6H22.5V5H18Z" transform="translate(0 -2)"/><g class="cls-6"><path class="cls-5" d="M72.09,2a8.38,8.38,0,0,1,2.19.29,8.83,8.83,0,0,1,2,.83,8.31,8.31,0,0,1,1.66,1.29,8.57,8.57,0,0,1,1.3,1.68,7.43,7.43,0,0,1,.83,2,8.64,8.64,0,0,1,.3,2.19,8.3,8.3,0,0,1-1.13,4.16,8.31,8.31,0,0,1-1.29,1.66,8.86,8.86,0,0,1-1.67,1.31,8.32,8.32,0,0,1-2,.83,9.25,9.25,0,0,1-2.19.29,8,8,0,0,1-2.8-.49,8.67,8.67,0,0,1-2.48-1.42l-9.2,9.19a.69.69,0,0,1-.52.22.71.71,0,0,1-.53-.22.75.75,0,0,1,0-1.06l9.19-9.2a8.43,8.43,0,0,1-1.42-2.46,8,8,0,0,1-.49-2.81,7.93,7.93,0,0,1,.29-2.19,8.12,8.12,0,0,1,2.12-3.63,8.61,8.61,0,0,1,1.68-1.31,8,8,0,0,1,2-.83A9.12,9.12,0,0,1,72.09,2Zm0,15a6.73,6.73,0,0,0,4.77-2,7,7,0,0,0,1.44-2.14,6.79,6.79,0,0,0,.54-2.63,6.68,6.68,0,0,0-.53-2.63,6.75,6.75,0,0,0-1.45-2.14A7,7,0,0,0,74.71,4a6.74,6.74,0,0,0-2.62-.54,6.68,6.68,0,0,0-4.77,2,7,7,0,0,0-1.44,2.14,6.45,6.45,0,0,0-.54,2.63,6.67,6.67,0,0,0,.52,2.63A6.81,6.81,0,0,0,72.09,17Z" transform="translate(0 -2)"/></g><g class="cls-7"><path class="cls-8" d="M245.66,13.48a1.67,1.67,0,0,1-.13.67,1.57,1.57,0,0,1-.37.55,2,2,0,0,1-.55.36,1.82,1.82,0,0,1-.67.14h-9.07l2.44,2.44a1.51,1.51,0,0,1,.38.55,1.94,1.94,0,0,1,.13.66,1.86,1.86,0,0,1-.13.67,1.6,1.6,0,0,1-.38.55,1.79,1.79,0,0,1-.54.37,2.11,2.11,0,0,1-.67.14,1.66,1.66,0,0,1-.66-.14,1.82,1.82,0,0,1-.56-.37l-5.35-5.36a1.8,1.8,0,0,1-.41-.59,1.92,1.92,0,0,1-.12-.71,1.4,1.4,0,0,1,.15-.64,2.15,2.15,0,0,1,.38-.53l5.35-5.35a1.64,1.64,0,0,1,.56-.38,1.72,1.72,0,0,1,.66-.13,1.64,1.64,0,0,1,.67.14,1.73,1.73,0,0,1,.54.37,1.9,1.9,0,0,1,.37.55,1.67,1.67,0,0,1,.14.67,1.75,1.75,0,0,1-.13.65,1.64,1.64,0,0,1-.38.56l-2.44,2.44h9.07a1.67,1.67,0,0,1,.67.13,1.57,1.57,0,0,1,.55.37,1.64,1.64,0,0,1,.36.55A1.6,1.6,0,0,1,245.66,13.48Z" transform="translate(0 -2)"/></g><g class="cls-9"><path class="cls-8" d="M285.37,14.52a1.67,1.67,0,0,1,.13-.67,1.6,1.6,0,0,1,.38-.55,2,2,0,0,1,.54-.36,1.86,1.86,0,0,1,.67-.14h9.07l-2.44-2.44a1.49,1.49,0,0,1-.37-.55,1.72,1.72,0,0,1-.13-.66,1.67,1.67,0,0,1,.13-.67,1.57,1.57,0,0,1,.37-.55,1.84,1.84,0,0,1,.55-.37,2,2,0,0,1,.67-.14,1.65,1.65,0,0,1,.65.14,1.75,1.75,0,0,1,.57.37l5.34,5.36a1.66,1.66,0,0,1,.41.59,1.91,1.91,0,0,1,.13.71,1.4,1.4,0,0,1-.15.64,2.2,2.2,0,0,1-.39.53l-5.34,5.35a1.78,1.78,0,0,1-.57.38,1.65,1.65,0,0,1-.66.13,1.67,1.67,0,0,1-.67-.14,1.73,1.73,0,0,1-.54-.37,1.87,1.87,0,0,1-.36-.55,1.52,1.52,0,0,1-.14-.67,1.57,1.57,0,0,1,.13-.65,1.61,1.61,0,0,1,.37-.56l2.44-2.44h-9.07a1.7,1.7,0,0,1-.67-.13,1.45,1.45,0,0,1-.54-.37,1.84,1.84,0,0,1-.37-.55A1.78,1.78,0,0,1,285.37,14.52Z" transform="translate(0 -2)"/></g><g class="cls-10"><path class="cls-11" d="M350,3c1,0,2,0,3,.09a21.64,21.64,0,0,1,2.94.41,8.56,8.56,0,0,1,2.65,1,6.5,6.5,0,0,1,2,2,8,8,0,0,1,1.1,2.61A12.52,12.52,0,0,1,362,12a13.51,13.51,0,0,1-.17,2.16,8.63,8.63,0,0,1-.59,1.95,7.41,7.41,0,0,1-1.05,1.72,9.44,9.44,0,0,1-1.57,1.51c-1.21.93-2.4,1.84-3.59,2.73l-3.59,2.73a.87.87,0,0,1-.55.18.78.78,0,0,1-.35-.08,1.86,1.86,0,0,1-.28-.21.77.77,0,0,1-.19-.31A1.44,1.44,0,0,1,350,24V20.71h-3c-.48,0-1,0-1.46-.05a12.39,12.39,0,0,1-1.47-.21A9,9,0,0,1,342.7,20a6.64,6.64,0,0,1-1.29-.68,7,7,0,0,1-1.56-1.45,7.41,7.41,0,0,1-1-1.78,9.92,9.92,0,0,1-.6-2A10.65,10.65,0,0,1,338,12a12.19,12.19,0,0,1,.33-2.84,8,8,0,0,1,1.15-2.61,6.66,6.66,0,0,1,2-2,8.36,8.36,0,0,1,2.64-1,22.42,22.42,0,0,1,2.93-.4C348,3.06,349,3,350,3Zm.75,11a.71.71,0,0,0,.53-.22.75.75,0,0,0,0-1.06.71.71,0,0,0-.53-.22h-6a.69.69,0,0,0-.52.22.73.73,0,0,0,0,1.06.69.69,0,0,0,.52.22Zm4.46-3a.83.83,0,0,0,.56-.2.7.7,0,0,0,.23-.55.67.67,0,0,0-.22-.54.9.9,0,0,0-.57-.21H344.82a.83.83,0,0,0-.56.2.68.68,0,0,0-.24.55.66.66,0,0,0,.24.54.9.9,0,0,0,.56.21Z" transform="translate(0 -2)"/></g><g class="cls-12"><path class="cls-11" d="M395.36,12a2.85,2.85,0,0,1,1.17.24,2.88,2.88,0,0,1,.94.63,3.18,3.18,0,0,1,.65,1,2.49,2.49,0,0,1,.24,1.17,2.85,2.85,0,0,1-.24,1.17,2.88,2.88,0,0,1-.63.94,3.18,3.18,0,0,1-1,.65,2.49,2.49,0,0,1-1.17.24,2.85,2.85,0,0,1-1.17-.24,2.88,2.88,0,0,1-.94-.63,3.18,3.18,0,0,1-.65-1,2.49,2.49,0,0,1-.24-1.17,2.85,2.85,0,0,1,.24-1.17,2.88,2.88,0,0,1,.63-.94,3.18,3.18,0,0,1,1-.65A2.49,2.49,0,0,1,395.36,12Zm10.14,0a2.85,2.85,0,0,1,1.17.24,2.73,2.73,0,0,1,.93.63,3,3,0,0,1,.66,1,2.48,2.48,0,0,1,.23,1.17,2.84,2.84,0,0,1-.23,1.17,3.23,3.23,0,0,1-.63.94,3.45,3.45,0,0,1-1,.65,2.54,2.54,0,0,1-1.17.24,3,3,0,0,1-2.11-.87,3,3,0,0,1-.66-1A2.48,2.48,0,0,1,402.5,15a3,3,0,0,1,.23-1.17,3.23,3.23,0,0,1,.63-.94,3.45,3.45,0,0,1,1-.65A2.55,2.55,0,0,1,405.5,12Zm10.13,0a2.85,2.85,0,0,1,1.17.24,2.88,2.88,0,0,1,.94.63,3.18,3.18,0,0,1,.65,1,2.49,2.49,0,0,1,.24,1.17,2.85,2.85,0,0,1-.24,1.17,2.88,2.88,0,0,1-.63.94,3.18,3.18,0,0,1-1,.65,2.49,2.49,0,0,1-1.17.24,2.85,2.85,0,0,1-1.17-.24,2.88,2.88,0,0,1-.94-.63,3.18,3.18,0,0,1-.65-1,2.61,2.61,0,0,1-.24-1.17,2.85,2.85,0,0,1,.24-1.17,2.88,2.88,0,0,1,.63-.94,3.45,3.45,0,0,1,1-.65A2.51,2.51,0,0,1,415.63,12Z" transform="translate(0 -2)"/></g></svg>